<svg xmlns="http://www.w3.org/2000/svg" xmlns:xlink="http://www.w3.org/1999/xlink" width="1024" height="1024" viewBox="0 0 1024 1024">
  <defs>
    <clipPath id="clip-Pigumer">
      <rect width="1024" height="1024"/>
    </clipPath>
  </defs>
  <g id="Pigumer" clip-path="url(#clip-Pigumer)">
    <g id="多角形_1" data-name="多角形 1" transform="translate(171 150.967)" fill="#1f68dc">
      <path d="M 226.8667755126953 665.9423217773438 C 221.5107727050781 665.9423217773438 216.1511383056641 665.3335571289062 210.9369506835938 664.1329345703125 C 205.7858734130859 662.94677734375 200.7592315673828 661.1795043945312 195.9965972900391 658.8800048828125 C 191.2340545654297 656.58056640625 186.7239532470703 653.743408203125 182.5915069580078 650.4473266601562 C 178.4085998535156 647.1107788085938 174.5986785888672 643.2924194335938 171.2676849365234 639.0982055664062 L 26.59268569946289 456.9303894042969 C 23.28032112121582 452.7595825195312 20.43677711486816 448.2110290527344 18.14095878601074 443.4109497070312 C 15.87268543243408 438.6683959960938 14.13059425354004 433.6632995605469 12.96304893493652 428.5347595214844 C 11.79550361633301 423.4062194824219 11.19932174682617 418.1401977539062 11.19114017486572 412.8831176757812 C 11.1828670501709 407.5622863769531 11.77723121643066 402.2310180664062 12.95777606964111 397.0374755859375 L 64.64268493652344 169.6531219482422 C 65.82614135742188 164.4464874267578 67.60050201416016 159.3701171875 69.91641235351562 154.5651245117188 C 72.20441436767578 149.8178405761719 75.02877807617188 145.3184814453125 78.31105041503906 141.1920318603516 C 81.59323120117188 137.0656585693359 85.34186553955078 133.3014831542969 89.45268249511719 130.0040283203125 C 93.61359405517578 126.6664810180664 98.16059112548828 123.7956619262695 102.9675064086914 121.4712066650391 L 311.7702331542969 20.50066375732422 C 316.5987854003906 18.16566276550293 321.696044921875 16.37884521484375 326.9205017089844 15.18975353240967 C 332.0816040039062 14.01511764526367 337.3836059570312 13.41957187652588 342.6794128417969 13.41957187652588 C 347.9752197265625 13.41957187652588 353.2772216796875 14.01511764526367 358.4383239746094 15.18975353240967 C 363.6626892089844 16.37884521484375 368.7599487304688 18.16566276550293 373.5885009765625 20.50066375732422 L 582.3912353515625 121.4711151123047 C 587.1981201171875 123.7955703735352 591.7451171875 126.666389465332 595.9060668945312 130.0039367675781 C 600.016845703125 133.3013916015625 603.7655029296875 137.0655670166016 607.0476684570312 141.1919403076172 C 610.3299560546875 145.3182983398438 613.154296875 149.8176574707031 615.4423828125 154.56494140625 C 617.75830078125 159.3700256347656 619.53271484375 164.4463043212891 620.7161254882812 169.6529388427734 L 672.401123046875 397.0373840332031 C 673.5816650390625 402.2309265136719 674.1759643554688 407.5621948242188 674.1676635742188 412.8830261230469 C 674.1594848632812 418.1401062011719 673.5634155273438 423.4061279296875 672.3958740234375 428.53466796875 C 671.2283325195312 433.6632080078125 669.4861450195312 438.6683044433594 667.2178955078125 443.4108581542969 C 664.922119140625 448.2109375 662.07861328125 452.7594909667969 658.76611328125 456.9302978515625 L 514.0911254882812 639.0982055664062 C 510.7601318359375 643.2924194335938 506.9502258300781 647.1107788085938 502.767333984375 650.4472045898438 C 498.6349487304688 653.7432861328125 494.1248779296875 656.5805053710938 489.3622436523438 658.8799438476562 C 484.5996704101562 661.1793823242188 479.5730590820312 662.9466552734375 474.4219665527344 664.1327514648438 C 469.207763671875 665.3333740234375 463.8482360839844 665.942138671875 458.4921264648438 665.942138671875 L 226.8667755126953 665.9423217773438 Z" stroke="none"/>
      <path d="M 342.6793212890625 18.41949462890625 C 332.78759765625 18.41949462890625 322.8521118164062 20.6956787109375 313.9468994140625 25.001953125 L 105.1441040039062 125.9725952148438 C 86.976318359375 134.7578735351562 73.9912109375 151.0826416015625 69.5181884765625 170.7612609863281 L 17.83343505859375 398.1456604003906 C 13.3729248046875 417.7691650390625 17.99261474609375 438.0619506835938 30.50811767578125 453.8207702636719 L 175.1830139160156 635.9885864257812 C 187.7776184082031 651.8469848632812 206.6156005859375 660.9422607421875 226.86669921875 660.9422607421875 L 458.4921264648438 660.9421997070312 C 478.743408203125 660.9421997070312 497.581298828125 651.8469848632812 510.1757202148438 635.9885864257812 L 654.8507080078125 453.8207702636719 C 667.3662109375 438.061767578125 671.9859008789062 417.7689819335938 667.525390625 398.1455688476562 L 615.8403930664062 170.7611694335938 C 611.367431640625 151.0826416015625 598.38232421875 134.7577514648438 580.2145385742188 125.9723510742188 L 371.4118041992188 25.001953125 C 362.5066223144531 20.6956787109375 352.5711059570312 18.41949462890625 342.6793212890625 18.41949462890625 M 342.6793518066406 8.41949462890625 C 353.9973754882812 8.41949462890625 365.3153991699219 10.946044921875 375.7651977539062 15.999267578125 L 584.5679321289062 116.9696655273438 C 605.3724975585938 127.0301513671875 620.469482421875 146.0100708007812 625.5917358398438 168.544677734375 L 677.2767333984375 395.9290771484375 C 682.385986328125 418.4068603515625 677.0173950195312 441.98876953125 662.681640625 460.0398559570312 L 518.006591796875 642.2076416015625 C 503.5892333984375 660.3614501953125 481.6744079589844 670.9421997070312 458.4921264648438 670.9421997070312 L 226.86669921875 670.9422607421875 C 203.6844177246094 670.9422607421875 181.7697143554688 660.3614501953125 167.3522338867188 642.207763671875 L 22.67718505859375 460.0398559570312 C 8.34130859375 441.9888916015625 2.97283935546875 418.406982421875 8.08209228515625 395.9291687011719 L 59.76690673828125 168.5447692871094 C 64.88909912109375 146.0101928710938 79.986083984375 127.0302734375 100.7907104492188 116.9698486328125 L 309.593505859375 15.999267578125 C 320.0433044433594 10.946044921875 331.361328125 8.41949462890625 342.6793518066406 8.41949462890625 Z" stroke="none" fill="#fff"/>
    </g>
    <g id="長方形_1" data-name="長方形 1" transform="matrix(0.788, -0.616, 0.616, 0.788, 166.884, 674.406)" fill="#1f68dc" stroke="#fff" stroke-width="10">
      <rect width="82.593" height="196.541" rx="33" stroke="none"/>
      <rect x="5" y="5" width="72.593" height="186.541" rx="28" fill="none"/>
    </g>
    <g id="長方形_2" data-name="長方形 2" transform="matrix(0.788, -0.616, 0.616, 0.788, 143.177, 769.235)" fill="#1f68dc" stroke="#fff" stroke-width="10">
      <rect width="82.593" height="98.653" rx="33" stroke="none"/>
      <rect x="5" y="5" width="72.593" height="88.653" rx="28" fill="none"/>
    </g>
  </g>
</svg>
